<svg width="34" height="31" viewBox="0 0 34 31" fill="none" xmlns="http://www.w3.org/2000/svg">
<path fill-rule="evenodd" clip-rule="evenodd" d="M17 0C17.501 0 17.9814 0.179107 18.3357 0.497919C18.6899 0.81673 18.8889 1.24913 18.8889 1.7V15.3C18.8889 15.7509 18.6899 16.1833 18.3357 16.5021C17.9814 16.8209 17.501 17 17 17H1.88889C1.38793 17 0.907479 16.8209 0.553244 16.5021C0.199008 16.1833 0 15.7509 0 15.3C0 14.8491 0.199008 14.4167 0.553244 14.0979C0.907479 13.7791 1.38793 13.6 1.88889 13.6H15.1111V1.7C15.1111 1.24913 15.3101 0.81673 15.6644 0.497919C16.0186 0.179107 16.4991 0 17 0V0Z" fill="#C4DD7E"/>
<path fill-rule="evenodd" clip-rule="evenodd" d="M15.1111 15.3C15.1111 14.8492 15.3101 14.4168 15.6643 14.098C16.0186 13.7791 16.499 13.6 17 13.6H32.1111C32.6121 13.6 33.0925 13.7791 33.4468 14.098C33.801 14.4168 34 14.8492 34 15.3C34 15.7509 33.801 16.1833 33.4468 16.5021C33.0925 16.8209 32.6121 17 32.1111 17H18.8889V28.9C18.8889 29.3509 18.6899 29.7833 18.3356 30.1021C17.9814 30.4209 17.5009 30.6 17 30.6C16.499 30.6 16.0186 30.4209 15.6643 30.1021C15.3101 29.7833 15.1111 29.3509 15.1111 28.9V15.3Z" fill="#C4DD7E"/>
</svg>
