<svg width="38" height="38" viewBox="0 0 38 38" fill="none" xmlns="http://www.w3.org/2000/svg">
<path d="M35.7409 1.88889C35.0991 1.2716 34.4265 0.802469 33.723 0.481481C33.0195 0.160494 32.2852 0 31.52 0C29.8168 0 28.2865 0.679012 26.9289 2.03704C26.4846 2.45679 18.6723 10.2716 3.49205 25.4815C3.34395 25.6296 3.23287 25.8025 3.15882 26C3.06009 26.4198 2.02339 29.8889 0.0487172 36.4074C-0.0746996 36.8765 0.0363755 37.284 0.381943 37.6296C0.406626 37.679 0.443651 37.716 0.493018 37.7407C0.542384 37.7654 0.58558 37.7901 0.622605 37.8148C0.65963 37.8395 0.702826 37.8642 0.752193 37.8889C0.80156 37.9136 0.850926 37.9321 0.900293 37.9444L1.04839 37.9815L1.19649 38C1.34459 38 1.46801 37.9753 1.56674 37.9259C6.77493 36.2222 10.1812 35.1358 11.7857 34.6667C11.8844 34.642 11.977 34.6049 12.0633 34.5556C12.1497 34.5062 12.23 34.4444 12.304 34.3704C15.1179 31.5802 19.5979 27.142 25.7441 21.0556C31.8903 14.9691 35.2595 11.6173 35.8519 11C37.3083 9.49383 38.0241 7.93827 37.9994 6.33333C37.95 4.75309 37.1972 3.2716 35.7409 1.88889ZM26.5586 5.81481C27.7928 6.11111 28.9529 6.80247 30.039 7.88889C30.4833 8.33333 30.8597 8.83951 31.1683 9.40741C31.4768 9.97531 31.6743 10.4012 31.7607 10.6852C31.8471 10.9691 31.9149 11.2346 31.9643 11.4815C28.632 14.7901 22.1033 21.2593 12.3781 30.8889C11.8844 29.7531 11.2056 28.7407 10.3417 27.8519C9.30498 26.8148 8.14486 26.037 6.86132 25.5185L6.89835 25.4815L6.93538 25.4444L6.9724 25.4074V25.3704H7.00942L7.04645 25.3333L7.08348 25.2963V25.2593H7.1205L7.15753 25.2222L7.19455 25.1852V25.1481H7.23158L7.2686 25.1111L7.30563 25.0741V25.037H7.34265L7.37968 25L7.4167 24.963L7.45373 24.9259V24.8889H7.49075L7.52778 24.8519L7.5648 24.8148V24.7778H7.60183L7.63885 24.7407L7.67588 24.7037L7.7129 24.6667V24.6296H7.74993L7.78695 24.5926L7.82398 24.5556L7.861 24.5185V24.4815L7.89803 24.4444H7.93505L7.97208 24.4074L8.0091 24.3704L8.04613 24.3333V24.2963L8.08315 24.2593H8.12018L8.1572 24.2222L8.19423 24.1852L8.23125 24.1481V24.1111L8.26828 24.0741H8.3053L8.34233 24.037L8.37935 24L8.41638 23.963L8.4534 23.9259V23.8889L8.49043 23.8519H8.52745L8.56448 23.8148L8.6015 23.7778L8.63853 23.7407L8.67555 23.7037L8.71258 23.6667V23.6296H8.7496L8.78663 23.5926L8.82365 23.5556L8.86068 23.5185L8.8977 23.4815L8.93473 23.4444L8.97175 23.4074V23.3704L9.00878 23.3333H9.0458L9.08283 23.2963L9.11985 23.2593L9.15688 23.2222L9.1939 23.1852L9.23093 23.1481L9.26795 23.1111L9.30498 23.0741V23.037L9.342 23H9.37903L9.41605 22.963L9.45308 22.9259L9.4901 22.8889L9.52713 22.8519L9.56415 22.8148L9.60118 22.7778L9.6382 22.7407L9.67523 22.7037L9.71225 22.6667V22.6296L9.74928 22.5926L9.7863 22.5556H9.82333L9.86035 22.5185L9.89738 22.4815L9.9344 22.4444L9.97143 22.4074L10.0085 22.3704L10.0455 22.3333L10.0825 22.2963L10.1195 22.2593L10.1566 22.2222L10.1936 22.1852L10.2306 22.1481V22.1111L10.2676 22.0741L10.3047 22.037L10.3417 22H10.3787L10.4157 21.963L10.4528 21.9259L10.4898 21.8889L10.5268 21.8519L10.5638 21.8148L10.6009 21.7778L10.6379 21.7407L10.6749 21.7037L10.7119 21.6667L10.749 21.6296L10.786 21.5926L10.823 21.5556L10.86 21.5185L10.8971 21.4815L10.9341 21.4444L10.9711 21.4074L11.0081 21.3704L11.0452 21.3333L11.0822 21.2963V21.2593L11.1192 21.2222L11.1562 21.1852L11.1933 21.1481L11.2303 21.1111L11.2673 21.0741L11.3043 21.037L11.3414 21L11.3784 20.963L11.4154 20.9259H11.4524L11.4895 20.8889L11.5265 20.8519L11.5635 20.8148L11.6005 20.7778L11.6376 20.7407L11.6746 20.7037L11.7116 20.6667L11.7486 20.6296L11.7857 20.5926L11.8227 20.5556L11.8597 20.5185L11.8967 20.4815L11.9338 20.4444L11.9708 20.4074L12.0078 20.3704L12.0448 20.3333L12.0819 20.2963L12.1189 20.2593L12.1559 20.2222L12.1929 20.1852L12.23 20.1481L12.267 20.1111L12.304 20.0741L12.341 20.037L12.4151 19.963L12.4521 19.9259L12.4891 19.8889L12.5262 19.8519L12.5632 19.8148L12.6002 19.7778L12.6372 19.7407L12.6743 19.7037L12.7113 19.6667L12.7483 19.6296L12.7853 19.5926L12.8224 19.5556L12.8594 19.5185L12.8964 19.4444L12.9334 19.4074L12.9705 19.3704L13.0075 19.3333L13.0445 19.2963L13.1186 19.2593L13.1556 19.2222L13.1926 19.1852L13.2296 19.1481L13.2667 19.1111L13.3037 19.0741L13.3407 19.037L13.3777 19L13.4148 18.963L13.4518 18.9259L13.4888 18.8889L13.5258 18.8148L13.5629 18.7778L13.5999 18.7407L13.6739 18.7037L13.711 18.6667L13.748 18.6296L13.785 18.5926L13.822 18.5556L13.8591 18.5185L13.8961 18.4815L13.9331 18.4444L13.9701 18.4074L14.0072 18.3333L14.0442 18.2963L14.0812 18.2593L14.1553 18.2222L14.1923 18.1852L14.2293 18.1481L14.2663 18.1111L14.3034 18.0741L14.3404 18.037L14.3774 18L14.4144 17.9259L14.4515 17.8889L14.4885 17.8519L14.5625 17.8148L14.5996 17.7778L14.6366 17.7407L14.6736 17.7037L14.7106 17.6667L14.7477 17.6296L14.7847 17.5926L14.8217 17.5185L14.8587 17.4815L14.9328 17.4444L14.9698 17.4074L15.0068 17.3704L15.0439 17.3333L15.0809 17.2963L15.1179 17.2593L15.1549 17.1852L15.192 17.1481L15.229 17.1111L15.303 17.0741L15.3401 17.037L15.3771 17L15.4141 16.963L15.4511 16.9259L15.4882 16.8519L15.5252 16.8148L15.5622 16.7778L15.6363 16.7407L15.6733 16.7037L15.7103 16.6667L15.7473 16.6296L15.7844 16.5926L15.8214 16.5185L15.8584 16.4815L15.9325 16.4444L15.9695 16.4074L16.0065 16.3704L16.0435 16.3333L16.0806 16.2963L16.1176 16.2222L16.1546 16.1852L16.2287 16.1481L16.2657 16.1111L16.3027 16.0741L16.3397 16.037L16.3768 16L16.4138 15.9259L16.4508 15.8889L16.5249 15.8519L16.5619 15.8148L16.5989 15.7778L16.6359 15.7407L16.673 15.7037L16.71 15.6296L16.747 15.5926L16.8211 15.5556L16.8581 15.5185L16.8951 15.4815L16.9321 15.4444L16.9692 15.4074L17.0062 15.3333L17.0432 15.2963L17.1173 15.2593L17.1543 15.2222L17.1913 15.1852L17.2283 15.1481L17.2654 15.0741L17.3024 15.037L17.3764 15L17.4135 14.963L17.4505 14.9259L17.4875 14.8889L17.5245 14.8148L17.5616 14.7778L17.6356 14.7407L17.6726 14.7037L17.7097 14.6667L17.7467 14.6296L17.7837 14.5556L17.8207 14.5185L17.8948 14.4815L17.9318 14.4444L17.9688 14.4074L18.0059 14.3704L18.0429 14.2963L18.0799 14.2593L18.154 14.2222L18.191 14.1852L18.228 14.1481L18.265 14.1111L18.3021 14.037L18.3391 14L18.4131 13.963L18.4502 13.9259L18.4872 13.8889L18.5242 13.8519L18.5612 13.7778L18.5983 13.7407L18.6723 13.7037L18.7093 13.6667L18.7464 13.6296L18.7834 13.5926L18.8204 13.5185L18.8945 13.4815L18.9315 13.4444L18.9685 13.4074L19.0055 13.3704L19.0426 13.2963L19.0796 13.2593L19.1536 13.2222L19.1907 13.1852L19.2277 13.1481L19.2647 13.1111L19.3017 13.037L19.3758 13L19.4128 12.963L19.4498 12.9259L19.4869 12.8889L19.5239 12.8148L19.5609 12.7778L19.635 12.7407L19.672 12.7037L19.709 12.6667L19.746 12.6296L19.7831 12.5556L19.8571 12.5185L19.8941 12.4815L19.9312 12.4444L19.9682 12.4074L20.0052 12.3333L20.0422 12.2963L20.1163 12.2593L20.1533 12.2222L20.1903 12.1852L20.2274 12.1481L20.2644 12.0741L20.3384 12.037L20.3755 12L20.4125 11.963L20.4495 11.9259L20.4865 11.8519L20.5236 11.8148L20.5976 11.7778L20.6346 11.7407L20.6717 11.7037L20.7087 11.6667L20.7457 11.5926L20.8198 11.5556L20.8568 11.5185L20.8938 11.4815L20.9308 11.4444L20.9679 11.3704L21.0049 11.3333L21.0789 11.2963L21.116 11.2593L21.153 11.2222L21.19 11.1852L21.227 11.1111L21.3011 11.0741L21.3381 11.037L21.3751 11L21.4122 10.963L21.4492 10.8889L21.4862 10.8519L21.5603 10.8148L21.5973 10.7778L21.6343 10.7407L21.6713 10.7037L21.7084 10.6296L21.7824 10.5926L21.8194 10.5556L21.8565 10.5185L21.8935 10.4815L21.9305 10.4074L21.9675 10.3704L22.0416 10.3333L22.0786 10.2963L22.1156 10.2593L22.1527 10.2222L22.1897 10.1481L22.2267 10.1111L22.3008 10.0741L22.3378 10.037L22.3748 10L22.4118 9.96296L22.4489 9.88889L22.5229 9.85185L22.5599 9.81481L22.597 9.77778L22.634 9.74074L22.671 9.66667L22.708 9.62963L22.7821 9.59259L22.8191 9.55556L22.8561 9.51852L22.8932 9.48148L22.9302 9.40741L22.9672 9.37037L23.0413 9.33333L23.0783 9.2963L23.1153 9.25926L23.1523 9.22222L23.1894 9.18519L23.2264 9.11111L23.2634 9.07407L23.3375 9.03704L23.3745 9L23.4115 8.96296L23.4485 8.92593L23.4856 8.85185L23.5226 8.81481L23.5966 8.77778L23.6337 8.74074L23.6707 8.7037L23.7077 8.66667L23.7447 8.62963L23.7818 8.55556L23.8188 8.51852L23.8928 8.48148L23.9299 8.44444L23.9669 8.40741L24.0039 8.37037L24.0409 8.33333L24.078 8.25926L24.115 8.22222L24.189 8.18519L24.2261 8.14815L24.2631 8.11111L24.3001 8.07407L24.3371 8.03704L24.3742 7.96296L24.4112 7.92593L24.4482 7.88889L24.5223 7.85185L24.5593 7.81481L24.5963 7.77778L24.6333 7.74074L24.6704 7.7037L24.7074 7.62963L24.7444 7.59259L24.7814 7.55556L24.8555 7.51852L24.8925 7.48148L24.9295 7.44444L24.9666 7.40741L25.0036 7.37037L25.0406 7.33333L25.0776 7.25926L25.1147 7.22222L25.1517 7.18519L25.1887 7.14815L25.2628 7.11111L25.2998 7.07407L25.3368 7.03704L25.3738 7L25.4109 6.96296L25.4479 6.92593L25.4849 6.88889L25.5219 6.85185L25.559 6.77778L25.596 6.74074L25.633 6.7037L25.67 6.66667L25.7441 6.62963L25.7811 6.59259L25.8181 6.55556L25.8552 6.51852L25.8922 6.48148L25.9292 6.44444L25.9662 6.40741L26.0033 6.37037L26.0403 6.33333L26.0773 6.2963L26.1143 6.25926L26.1514 6.22222L26.1884 6.18519L26.2254 6.14815L26.2624 6.11111L26.2995 6.07407L26.3365 6L26.3735 5.96296L26.4105 5.92593L26.4476 5.88889L26.4846 5.85185L26.5586 5.81481ZM5.23222 27.5185C6.44171 27.8395 7.57714 28.5309 8.63853 29.5926C9.47776 30.4321 10.0702 31.4198 10.4157 32.5556C9.92206 32.7284 8.74343 33.1235 6.87984 33.7407C5.01624 34.358 3.67717 34.8025 2.86262 35.0741C3.08477 34.3333 3.49205 33.0432 4.08445 31.2037C4.67685 29.3642 5.05944 28.1358 5.23222 27.5185ZM34.1118 9.2963C34.1118 9.32099 34.0994 9.34568 34.0747 9.37037L34.0007 9.44444L33.8896 9.55556C33.3959 8.2716 32.6801 7.14815 31.7422 6.18519C30.7548 5.19753 29.6564 4.44444 28.4469 3.92593L28.558 3.81481L28.632 3.74074C28.7555 3.61728 28.9097 3.48148 29.0949 3.33333C29.28 3.18519 29.6132 3 30.0945 2.77778C30.5759 2.55556 31.051 2.44444 31.52 2.44444C31.9643 2.44444 32.4024 2.54321 32.8344 2.74074C33.2663 2.93827 33.6798 3.23457 34.0747 3.62963C34.5684 4.09877 34.9448 4.5679 35.204 5.03704C35.4632 5.50617 35.5928 5.96296 35.5928 6.40741C35.5928 7.32099 35.0991 8.28395 34.1118 9.2963Z" fill="#A7BD6A"/>
</svg>
