<svg width="24" height="24" viewBox="0 0 24 24" fill="none" xmlns="http://www.w3.org/2000/svg">
<path fill-rule="evenodd" clip-rule="evenodd" d="M-0.532571 11.7279C-0.532758 11.58 -0.503755 11.4334 -0.447224 11.2967C-0.390693 11.16 -0.307745 11.0358 -0.20313 10.9312C-0.0985144 10.8265 0.0257121 10.7436 0.162434 10.6871C0.299156 10.6305 0.445687 10.6015 0.593635 10.6017L22.8633 10.6017C23.1619 10.6017 23.4484 10.7204 23.6596 10.9316C23.8708 11.1428 23.9895 11.4292 23.9895 11.7279C23.9895 12.0266 23.8708 12.3131 23.6596 12.5243C23.4484 12.7355 23.1619 12.8541 22.8633 12.8541L0.593635 12.8541C0.445687 12.8543 0.299155 12.8253 0.162433 12.7688C0.0257106 12.7122 -0.0985148 12.6293 -0.20313 12.5247C-0.307745 12.4201 -0.390693 12.2958 -0.447224 12.1591C-0.503755 12.0224 -0.532758 11.8759 -0.532571 11.7279V11.7279Z" fill="#AEB5BC"/>
<path fill-rule="evenodd" clip-rule="evenodd" d="M11.728 23.9885C11.876 23.9887 12.0225 23.9597 12.1592 23.9032C12.296 23.8466 12.4202 23.7637 12.5248 23.6591C12.6294 23.5545 12.7124 23.4302 12.7689 23.2935C12.8254 23.1568 12.8544 23.0103 12.8542 22.8623V0.592692C12.8542 0.294004 12.7356 0.00754896 12.5244 -0.203656C12.3132 -0.41486 12.0267 -0.533515 11.728 -0.533515C11.4293 -0.533515 11.1429 -0.41486 10.9317 -0.203656C10.7205 0.00754896 10.6018 0.294004 10.6018 0.592692V22.8623C10.6016 23.0103 10.6306 23.1568 10.6872 23.2935C10.7437 23.4302 10.8266 23.5545 10.9313 23.6591C11.0359 23.7637 11.1601 23.8466 11.2968 23.9032C11.4335 23.9597 11.5801 23.9887 11.728 23.9885V23.9885Z" fill="#AEB5BC"/>
</svg>
