<svg width="16" height="16" viewBox="0 0 16 16" fill="none" xmlns="http://www.w3.org/2000/svg">
<path d="M0.248038 15.7438L0.250976 15.7468C0.32888 15.8253 0.421527 15.8876 0.523592 15.9301C0.625656 15.9727 0.735125 15.9946 0.845703 15.9947C0.938748 15.9946 1.03115 15.9793 1.11923 15.9493L5.91452 14.3226L15.1164 5.12076C15.6789 4.55818 15.9949 3.79517 15.9949 2.9996C15.9948 2.20402 15.6788 1.44104 15.1162 0.878507C14.5536 0.315973 13.7906 -3.48274e-05 12.995 2.87892e-09C12.1994 3.48331e-05 11.4365 0.31611 10.8739 0.878693L1.67208 10.0805L0.0455303 14.8757C-0.00570598 15.0248 -0.0138842 15.1853 0.0219333 15.3389C0.0577508 15.4924 0.136114 15.6328 0.248038 15.7438ZM11.6381 1.64277C11.9984 1.28514 12.4859 1.08488 12.9936 1.08586C13.5013 1.08683 13.9879 1.28896 14.3469 1.64797C14.7059 2.00698 14.908 2.49362 14.909 3.00133C14.91 3.50905 14.7097 3.99645 14.3521 4.35682L13.142 5.56687L10.4279 2.85282L11.6381 1.64277ZM2.61455 10.6663L9.66388 3.61689L12.3779 6.33095L5.32857 13.3803L1.22121 14.7736L2.61455 10.6663Z" fill="black"/>
</svg>
