<svg width="20" height="16" viewBox="0 0 20 16" fill="none" xmlns="http://www.w3.org/2000/svg">
<path d="M10 16L9.64706 15.7306C2.05882 10.0741 0 8.08081 0 4.84848C0 2.15488 2.35294 0 5.29412 0C7.70588 0 9.05882 1.23906 10 2.20875C10.9412 1.23906 12.2941 0 14.7059 0C17.6471 0 20 2.15488 20 4.84848C20 8.08081 17.9412 10.0741 10.3529 15.7306L10 16ZM5.29412 1.07744C3 1.07744 1.17647 2.74747 1.17647 4.84848C1.17647 7.59596 3.05882 9.42761 10 14.5993C16.9412 9.42761 18.8235 7.59596 18.8235 4.84848C18.8235 2.74747 17 1.07744 14.7059 1.07744C12.6471 1.07744 11.5294 2.20875 10.6471 3.12458L10 3.82492L9.35294 3.12458C8.47059 2.20875 7.35294 1.07744 5.29412 1.07744Z" fill="#A6A6A6"/>
</svg>
